<svg width="32" height="32" viewBox="0 0 32 32" fill="none" xmlns="http://www.w3.org/2000/svg">
<g clip-path="url(#clip0_84_4193)">
<path fill-rule="evenodd" clip-rule="evenodd" d="M10.3487 7V4.7H25.3001V27.3H10.3487V25H7.64868V29C7.64868 29.5523 8.0964 30 8.64868 30H27.0001C27.5523 30 28.0001 29.5523 28.0001 29V3C28.0001 2.44772 27.5523 2 27.0001 2H8.64868C8.0964 2 7.64868 2.44772 7.64868 3V7H10.3487Z" fill="#3985F5"/>
<path d="M9.49981 22C8.59806 21.9999 7.71713 21.7479 6.97124 21.2765C6.22535 20.8051 5.64891 20.1362 5.31664 19.3564C4.98437 18.5766 4.91161 17.722 5.10779 16.9033C5.30397 16.0845 5.76004 15.3395 6.41688 14.7648C7.22211 14.0599 9.1998 12.7907 8.89978 10C12.4999 12.2326 14.3 14.4651 10.6999 17.814C11.2999 17.814 12.1999 17.814 13.7 16.4353C13.862 16.8668 14 17.3306 14 17.814C14 18.9242 13.5259 19.9889 12.6819 20.7739C11.838 21.559 10.6933 22 9.49981 22Z" fill="#3985F5"/>
</g>
<defs>
<clipPath id="clip0_84_4193">
<rect width="32" height="32" fill="white"/>
</clipPath>
</defs>
</svg>
